<svg width="237" height="328" xmlns="http://www.w3.org/2000/svg" viewBox="0 0 237 328"><path d="M94.76 73.813c-7.172-18.38-12.638-44.67-1.574-49.179 6.618-2.696 11.999.545 13.172 1.993 5.701-9.393 18.62-25.267 27.313-24.5 8.694.766 12.565 10.507 14.395 15.416 23.899-8.595 55.904-5.751 61.359-4.739 5.454 1.013 9.73 8.095 8.234 13.11-1.497 5.015-5.43 9-5.43 9 4.104 3.482 10.914 6.515-1.765 33.915 5.947 2.144 13.268 10.544 4.172 19.045-5.62 5.25-22.47 10.016-23.545 10.254-.442 4.091-9.835 18.78-29.583 17.724-.418 9.87-.91 89.026 5.288 110.086 5.55-4.646 10.875-3.628 14.63-.26 4.813-3.16 13.336 1.26 14.051 9.374.716 8.114-1.063 17.4-1.366 18.631 2.77 3.047 5.899 15.113-12.642 26.822.232 10.218-1.715 31.843-2.448 36.025-.732 4.182-4.327 9.265-10.869 9.236-6.542-.029-56.765-.31-59.679-.152-2.914.158-7.598-2.912-9.668-9.608-4.586-14.837-9.921-59.736-6.118-77.804-25.911 8.915-60.368-3.613-70.89-32.583-10.6-29.19-1.899-74.19 49.69-79.889-2.469-9.374 1.571-18.302 8.239-20.945 4.244-1.682 16.947-3.58 17.5-4.05.25-1.424.392-4.05.392-4.05-1.878-.748-8.52-5.925-2.857-22.872z" fill="#000" fill-rule="evenodd"/></svg>