<svg width="237" height="328" xmlns="http://www.w3.org/2000/svg" viewBox="0 0 237 328"><path d="M117.73 80.659c-3.229-4.007-15.677-19.087-1.931-26.268 1.42-14.147 5.806-22.292 6.792-24.674.986-2.383 5.156-9.336 15.307-4.838 8.493-7.652 29.708-22.636 49.875-22.878 9.088-.11 10.226 11.97 10.167 14.693 6.008-.3 11.278 3.704 11.785 12.226.508 8.523.482 12.95.482 12.95 2.79 1.905 5.293 4.817 5.048 10.59-.244 5.775-2.177 13.852-2.405 15.075 4.02 2.94 7.75 10.857-2.321 21.011 3.364 9.223 1.113 18.807-15.096 31.05 11.514 9.347 20.31 23.327 11.828 36.332.85 12.62-1.515 30.656-10.706 40.1 6.169 10.676 12.683 23.967 12.32 28.082-.782 8.882-12.618 24.195-14.952 25.927-2.334 1.731-4.443 3.699-6.836 4.478 5.14 1.45 8.953 2.909 9.56 17.602 3.829 2.713 8.237 8.413-1.083 25.067 1.23 3.793 1.9 14.274-14.966 15.492-.195 9.245-5.076 12.838-8.799 12.988-3.723.15-69.67-.032-72.265-.012-2.595.02-9.833-2.372-10.239-10.509-.406-8.137-.313-23.767-.07-26.202-5.403-2.644-6.537-9.834-4.625-14.311-3.886-5.96-4.44-10.363-4.704-12.777-.264-2.414 14.803-45.044 17.532-53.614-7.822 1.45-23.467 1.742-28.499.3-7.07-2.025-12.87-14.365-14.914-24.952-1.403-7.265 2.621-10.695 4.134-12.024-.322-3.058.652-6.015 1.432-7.02.126-1.547.369-7.938.369-7.938-4.931-.9-27.546-8.292-33.303-14.862-5.757-6.569-9.352-20.243-5.603-36.406 3.749-16.164 11.51-30.43 27.476-31.83 15.966-1.401 46.67 2.392 67.26 9.382-.057-.74.86-1.803 1.95-2.23z" fill="#000" fill-rule="evenodd"/></svg>