<svg width="237" height="328" xmlns="http://www.w3.org/2000/svg" viewBox="0 0 237 328"><path d="M96.166 108.41c-7.174-4.873-15.562-19.861-16.544-27.552-.983-7.69 5.148-11.076 9.465-11.883 5.886-24.145 15.248-35.937 17.536-38.97 2.288-3.033 6.172-6.426 14.96-3.122 8.071-9.442 18.022-16.257 22.598-17.646 4.576-1.39 9.397-.821 12.707 3.884 6.671-5.294 11.214-11.15 18.589-10.865 7.375.285 10.47 8.847 15.447 27.722 8.171-1.256 11.743 5.558 12.72 9.772.975 4.215 2.003 30.738 1.223 39.2 7.685 2.484 8.958 9.205 6.395 16.723-2.563 7.517-12.178 16.967-14.796 20.205.668 5.182.28 12.234-3.43 17.334-9.444 12.977-22.718 16.91-29.188 16.06.225 7.544 1.506 32.749 1.68 33.639 7.01-.519 11.895.64 14.361 5.031 2.466 4.391.27 10.348-6.32 28.826 3.835 15.79 8.702 42.548.7 64.165.307 2.776.523 12.129.523 12.129s5.062 2.853 4.308 9.848c-.754 6.995-1.398 11.792-1.744 14.26-.347 2.468-2.29 9.048-13.25 8.744-10.961-.304-71.829-.638-78.674-.154-6.845.484-10.153-5.166-10.56-9.638-.409-4.471.583-15.044 1.233-17.48.65-2.435 1.856-8.422 9.289-9.828.532-1.808 1.021-7.126 1.021-7.126-8.434 3.866-24.874 8.975-36.774 2.121-11.899-6.854-24.875-22.385-20.31-56.599-7.117-18.096-3.943-35.167-3.53-40.008.411-4.84 4.82-9.029 11.811-8.27 6.991.76 32.651 4.169 32.651 4.169-9.936-6.032-17-21.235-13.534-34.806 2.388-9.349 10.864-10.356 14.01-10.875 3.147-.52 15.58-2.893 15.756-2.98 1.652-14.32 2.77-22.472 9.671-26.03zm-14.675 79.594c1.863 4.126 2.563 8.5 9.446 10.938 1.769-3.26 5.503-3.977 6.99-4.042.257-1.519.383-4.685.383-4.685-3.834-.138-13.436-1.485-16.819-2.21z" fill="#000" fill-rule="evenodd"/></svg>